<svg width="24" height="24" viewBox="0 0 24 25" fill="none" xmlns="http://www.w3.org/2000/svg">
    <path fill-rule="evenodd" clip-rule="evenodd"
        d="M15.3118 9.70433C15.3118 13.5738 12.3936 16.4087 9.15588 16.4087C5.91812 16.4087 3 13.5738 3 9.70433C3 5.83481 5.91812 3 9.15588 3C12.3936 3 15.3118 5.83481 15.3118 9.70433ZM14.7452 17.3912C13.1989 18.6562 11.2603 19.4087 9.15588 19.4087C4.09923 19.4087 0 15.0639 0 9.70433C0 4.34478 4.09923 0 9.15588 0C14.2125 0 18.3118 4.34478 18.3118 9.70433C18.3118 11.5329 17.8346 13.2434 17.005 14.7035L23.6344 21.73L21.2366 24.2714L14.7452 17.3912Z"
        fill="black" />
</svg>